# xmcd
#
# Track frame offsets:
#       150
#       14237
#       30887
#       47812
#       60947
#       77735
#       94125
#       104962
#       121800
#       140175
#
# Disc length: 2045 seconds
#
# Revision: 2
# Processed by: cddbd v1.5.2PL0 Copyright (c) Steve Scherf et al.
# Submitted via: FreeDbEdit v0.1
#
DISCID=8707fb0a
DTITLE=The O'Jays - Greatest Hits
DYEAR=1900
DGENRE=
TTITLE0=Back Stabbers
TTITLE1=Livin' for the Weekend
TTITLE2=For the Love of Money
TTITLE3=Time to Get Down
TTITLE4=Survival
TTITLE5=Let Me Make Love to You
TTITLE6=992 Arguments
TTITLE7=Sunshine
TTITLE8=Put Your Hands Together
TTITLE9=Love Train
EXTD=
EXTT0=
EXTT1=
EXTT2=
EXTT3=
EXTT4=
EXTT5=
EXTT6=
EXTT7=
EXTT8=
EXTT9=
PLAYORDER=
